<svg xmlns="http://www.w3.org/2000/svg" id="Laag_1" data-name="Laag 1" viewBox="0 0 219.67 208.01"><defs><style>.cls-1{fill:#c4185b}</style></defs><path d="M123.86 44.1c-16.23-5.5-54.54-15.29-60.39 10.08-1.8 7.01-.93 17.18 7.42 19.16 6.7 1.27 13.45-1.83 19.84-3.47 4.73-1.42 13.04-2.55 13.01 3.87-1.53 8.92-4.08 17.84-1.13 26.92 1.06 4.22 3.73 9.17 5.04 13.15.47 1.48.33 2.93-.81 4.09-4.3 4.58-14.83 1.22-21.31-.16-5.38-.85-20.3-6.23-18.55 1.21.77 4.23 5.1 14.68 6.44 20.53 8.98 32.72 10.07 69.43-32.5 68.35-11.64-.28-23.66-3.16-33.11-10.52-8.7-6.34-11.31-21.08-1.69-27.8 8.14-4.55 16.05-9.77 19.15-19.2 3.71-10.1 3.57-19.39 2.22-30.48-1.47-16.15-6.23-36.93-12.33-51.38-4.64-11.89-5.63-25.08-2.84-37.74C22.5-12.94 82.21-.1 114.05 9.45c25.53 7.35 43.11 25.77 64.34 8.6 1.95-1.63 4.1-3.23 6.56-3.82 5.69-1.56 12.18 1.29 16.81 5.03 13.19 10.42 22.22 32.89 15.79 50.42-1.77 5.46-4.97 11.41-10.63 13.54-15.07 5.25-33.48-18.05-64.72-32-5.99-2.75-12-5.07-18.15-7.05l-.19-.06Z" class="cls-1"/><path d="M174.79 75.36c1.98 1.66 2.15 4.66.32 6.49-.08.08-.17.17-.25.26-2.53 2.55-3.58 4.93-3.6 7.17-.03 4.57 6.26 9.79 8.38 11.35 5.08 3.75 8.75 6.23 11.25 7.76 0 0 9.66 5.89 17.51 14.16 9.66 10.16 12.57 26.68 10.62 39.82-3.1 20.9-18.98 36.39-34.47 42.1-17.67 6.51-39.19 1.79-43.5 1.01-7.67-1.38-15.28-3.98-23.17-3.08-7.5.31-13.74 5.63-21.02 5.61-7.12.19-16.55-1.78-19.03-9.38-.03-.09-.05-.18-.07-.27-.82-4.59 2.28-8.65 3.07-13.11 2.68-10.84-.1-21.4-1.44-29.29-5.12-18.68 17.92-25.35 30.73-16.58 6.14 3.98 7.11 12.47 13.1 16.91 10.25 8.21 31.06 11.36 32.46-2.94.4-4.74-1.35-10.15-4.4-13.49-3.87-3.93-9.43-5.78-14.43-9.08-10.35-6.71-22.07-16.86-27.14-29.79-5.01-14.52-.44-32.3 10.67-42.78 2.34-2.2 7.23-7.12 13.45-6.78 2.02.11 4.18 1.09 8.5 3.04 1.6.72 5.43 2.5 11.72 6.27 2.68 1.6 6.68 4.01 11.72 7.63 2.7 1.94 5.74 4.26 9 6.99Z" class="cls-1"/></svg>